<svg height="512pt" viewBox="0 0 512 512" width="512pt" xmlns="http://www.w3.org/2000/svg"><path d="m511.75 191.164062c-2.976562-49.375-35.136719-91.75-82.273438-107.855468-7.742187-18.277344-24.683593-31.738282-44.984374-34.574219 3.019531-19.089844 19.582031-33.734375 39.507812-33.734375 11.8125 0 22.960938 5.183594 30.585938 14.21875l11.464843-9.675781c-10.484375-12.417969-25.8125-19.542969-42.050781-19.542969-28.167969 0-51.445312 21.289062-54.617188 48.621094-23.675781 2.941406-42.929687 20.3125-48.644531 43.019531l-109.289062 30.785156 4.066406 14.4375 103.535156-29.164062c1.078125 30.765625 26.425781 55.464843 57.449219 55.464843 31.703125 0 57.5-25.792968 57.5-57.5 0-1.539062-.078125-3.0625-.199219-4.574218 36.023438 16.070312 60.195313 50.445312 62.921875 90.074218h-121.222656v15h121.5v73h-184.5v15h184.5v35.679688c-11.296875 2.640625-17.839844 11.058594-23.277344 18.054688-6.496094 8.367187-10.578125 13.101562-18.929687 13.101562-8.347657 0-12.429688-4.734375-18.929688-13.101562-6.539062-8.417969-14.675781-18.898438-30.773437-18.898438s-24.234375 10.480469-30.773438 18.898438c-6.496094 8.367187-10.578125 13.101562-18.925781 13.101562s-12.429687-4.734375-18.925781-13.101562c-6.539063-8.417969-14.675782-18.898438-30.773438-18.898438s-24.234375 10.480469-30.773437 18.898438c-6.496094 8.367187-10.578125 13.101562-18.925781 13.101562-8.34375 0-12.425782-4.734375-18.925782-13.101562-6.539062-8.417969-14.675781-18.898438-30.769531-18.898438-16.097656 0-24.234375 10.480469-30.773437 18.898438-6.496094 8.367187-10.578126 13.101562-18.925782 13.101562s-12.429687-4.734375-18.925781-13.101562c-6.539063-8.417969-14.675781-18.898438-30.773437-18.898438-16.09375 0-24.234376 10.480469-30.769532 18.898438-6.5 8.367187-10.582031 13.101562-18.929687 13.101562-8.34375 0-12.425781-4.734375-18.925781-13.101562-5.433594-6.996094-11.976563-15.410157-23.269532-18.054688v-35.679688h282.5v-15h-282.503906v-73h345.5v-15h-337.765625l178.34375-50.234374-4.066406-14.4375-197.011719 55.496093v193.675781h15v-29.949218c4.007812 2.070312 7.210938 5.957031 11.425781 11.382812 6.539063 8.421875 14.675781 18.902344 30.773438 18.902344 16.09375 0 24.234375-10.480469 30.773437-18.902344 6.496094-8.367187 10.578125-13.097656 18.925782-13.097656 8.34375 0 12.425781 4.730469 18.921874 13.097656 6.539063 8.421875 14.679688 18.902344 30.773438 18.902344 16.097656 0 24.234375-10.480469 30.773438-18.902344 6.5-8.367187 10.582031-13.097656 18.929687-13.097656 8.34375 0 12.425781 4.730469 18.921875 13.097656 6.539062 8.421875 14.675781 18.902344 30.773438 18.902344 16.097656 0 24.234374-10.480469 30.773437-18.902344 6.496094-8.367187 10.578125-13.097656 18.921875-13.097656 8.347656 0 12.429688 4.730469 18.925781 13.097656 6.539063 8.421875 14.679688 18.902344 30.777344 18.902344 16.09375 0 24.230469-10.480469 30.769531-18.902344 6.5-8.367187 10.582032-13.097656 18.929688-13.097656s12.429687 4.734375 18.925781 13.097656c6.542969 8.421875 14.679687 18.902344 30.777344 18.902344 16.097656 0 24.238281-10.480469 30.777343-18.902344 4.214844-5.425781 7.417969-9.316406 11.425782-11.382812v65.117187h-481.996094v-20.167969h-15v120.5h424.5c48.246094 0 87.5-39.25 87.5-87.5v-232.5zm-135.25-43c-23.433594 0-42.5-19.0625-42.5-42.5 0-23.433593 19.066406-42.5 42.5-42.5s42.5 19.066407 42.5 42.5c0 23.4375-19.066406 42.5-42.5 42.5zm48 348h-409.5v-70.332031h481.945312c-1.152343 38.976563-33.195312 70.332031-72.445312 70.332031zm0 0"/><path d="m464 55h15c0-7.140625-1.347656-14.089844-4.011719-20.65625l-13.902343 5.636719c1.933593 4.769531 2.914062 9.820312 2.914062 15.019531zm0 0"/><path d="m45.5 441.164062h38v15h-38zm0 0"/><path d="m185.125 482.164062h-30v-15h30zm-45 0h-31v-15h31zm0 0"/><path d="m211.75 441.164062h36v15h-36zm0 0"/><path d="m357.375 482.164062h-15v-15h15zm-30 0h-60v-15h60zm0 0"/><path d="m378.5 441.164062h73v15h-73zm0 0"/><path d="m380.5 84.164062h15v15h-15zm0 0"/><path d="m41.5 223.164062h15v15h-15zm0 0"/><path d="m69.5 249.164062h15v15h-15zm0 0"/><path d="m118.5 223.164062h15v15h-15zm0 0"/><path d="m146.5 249.164062h15v15h-15zm0 0"/><path d="m195.5 223.164062h15v15h-15zm0 0"/><path d="m223.5 249.164062h15v15h-15zm0 0"/><path d="m272.5 223.164062h15v15h-15zm0 0"/><path d="m300.5 249.164062h15v15h-15zm0 0"/><path d="m349.5 223.164062h15v15h-15zm0 0"/><path d="m377.5 249.164062h15v15h-15zm0 0"/><path d="m426.5 223.164062h15v15h-15zm0 0"/><path d="m454.5 249.164062h15v15h-15zm0 0"/></svg>